<svg width="180" height="69" viewBox="0 0 180 69" fill="none" xmlns="http://www.w3.org/2000/svg">
<g clip-path="url(#clip0_37_375)">
<path d="M151.166 67.9995C176.679 67.9995 179.514 65.1646 179.514 39.6514V28.3122C179.514 2.79892 176.679 -0.0358887 151.166 -0.0358887L139.826 -0.0358887C114.313 -0.0358887 111.478 2.79892 111.478 28.3122V39.6514C111.478 65.1646 114.313 67.9995 139.826 67.9995H151.166ZM154 53.8254L136.992 59.495V14.1381L154 8.46853V53.8254ZM26.367 45.2169L29.9932 44.0089V59.4974H26.367V45.2169ZM19.1469 59.4974H22.7731V36.8513H19.1469V59.4974ZM11.9245 44.0066H15.5507V59.495H11.9245V57.2411C10.9433 59.0068 9.08043 59.8884 6.43539 59.8884C2.31855 59.8884 -0.0349121 57.535 -0.0349121 51.752C-0.0349121 45.969 2.31855 43.6155 6.43539 43.6155C9.08275 43.6155 10.9456 44.4972 11.9245 46.2629V44.0089V44.0066ZM11.9245 51.3586C11.9245 48.3201 10.8461 47.1422 7.70816 47.1422C4.5702 47.1422 3.59133 48.3178 3.59133 51.3586V52.1431C3.59133 55.1815 4.66971 56.3594 7.70816 56.3594C10.7466 56.3594 11.9245 55.1838 11.9245 52.1431V51.3586ZM90.9404 44.0066H94.4694V59.495H90.9404V57.2411C89.862 59.0068 87.9991 59.8884 85.3517 59.8884C81.2349 59.8884 78.9786 57.535 78.9786 51.752C78.9786 45.969 81.2326 43.6155 85.3517 43.6155C87.9991 43.6155 89.862 44.4972 90.9404 46.2629V44.0089V44.0066ZM90.9404 51.3586C90.8432 48.3201 89.7648 47.1422 86.724 47.1422C83.6833 47.1422 82.5077 48.3178 82.5077 51.3586V52.1431C82.5077 55.1815 83.6833 56.3594 86.724 56.3594C89.7648 56.3594 90.8409 55.1838 90.9404 52.1431V51.3586ZM70.0577 43.6155C67.5098 43.6155 65.8413 44.5967 65.0569 46.4596C64.2724 44.5967 62.6062 43.6155 60.056 43.6155C57.9964 43.6155 56.4298 44.3028 55.5458 45.6751V44.0089H52.0167V59.4974H55.5458V50.3797C55.5458 48.0262 56.4275 47.1445 58.7809 47.1445C61.1344 47.1445 61.9189 48.0262 61.9189 50.3797V59.4974H65.5451V50.3797C65.5451 48.0262 66.3296 47.1445 68.6831 47.1445C71.0366 47.1445 71.9182 48.0262 71.9182 50.3797V59.4974H75.4473V49.0074C75.4473 45.5756 73.4872 43.6155 70.0554 43.6155H70.0577ZM26.367 42.2432H29.9932V38.7142H26.367V42.2432ZM42.4131 43.6155C39.9625 43.6155 38.1968 44.4972 37.2179 46.0662V44.0066H33.5917V59.495H37.2179V51.0647C37.2179 48.2206 38.1991 47.1422 41.0408 47.1422C43.8826 47.1422 44.9633 48.2206 44.9633 51.0647V59.495H48.4923V49.6924C48.4923 45.7699 46.3356 43.6132 42.4131 43.6132V43.6155ZM52.5768 29.7099C49.897 29.7099 48.4275 28.9902 48.4275 25.5607C48.4275 22.1311 49.897 21.4114 52.5768 21.4114C55.2565 21.4114 56.726 22.1311 56.726 25.5607C56.726 28.9902 55.2565 29.7099 52.5768 29.7099ZM68.0652 16.3134V27.6202H64.3395C61.3334 27.6202 60.5119 26.5858 60.2967 24.3411C59.82 19.3472 56.3673 17.8824 52.5745 17.8824C48.49 17.8824 44.7967 19.581 44.7967 25.5607C44.7967 26.3128 44.8545 26.9977 44.9656 27.6202H22.7384C19.8943 27.6202 18.816 27.1944 18.816 23.6978V8.47084H15.1897V24.9729C15.1897 29.5479 17.2169 31.1493 21.2689 31.1493H46.6225C48.085 32.6974 50.2673 33.2413 52.5745 33.2413C55.4046 33.2413 58.0474 32.4244 59.4034 29.9321C60.3453 30.7698 61.7824 31.1493 64.3395 31.1493H71.6915V16.3134H68.0652ZM68.0652 10.2666V13.8928H71.6915V10.2666H68.0652ZM80.9086 37.6844V36.0506H79.6335C78.7519 36.0506 78.097 35.7567 78.097 35.037C78.097 34.4492 78.5552 34.2525 79.4368 34.2525H80.1565V32.6512H78.9138C77.2477 32.6512 76.3984 33.4033 76.3984 34.5464C76.3984 35.199 76.6275 35.6896 76.9862 36.0506H75.7111V37.6844H80.9063H80.9086ZM87.3118 31.147V8.46853H83.6856V27.6179H74.112V31.147H87.3141H87.3118ZM90.8409 8.46853V31.147H94.4671V8.46853H90.8409ZM13.4264 31.147V27.6179H10.7142C7.67576 27.6179 5.84529 26.5071 5.84529 24.2856C5.84529 22.9781 6.82648 22.2584 8.75414 22.2584H11.0081V18.7294H7.64336C4.37581 18.7294 2.21905 20.6894 2.21905 23.5659C2.21905 25.2321 2.64485 26.5395 3.59133 27.6179H-0.0349121L-0.0349121 31.147H13.4287H13.4264ZM76.528 9.67882L80.1542 8.47084V25.202H76.528V9.68113V9.67882Z" fill="#FDF8F5"/>
</g>
<defs>
<clipPath id="clip0_37_375">
<rect width="179.576" height="68.0353" fill="white"/>
</clipPath>
</defs>
</svg>
