<?xml version="1.0" encoding="UTF-8"?>
<svg id="Layer_1" data-name="Layer 1" xmlns="http://www.w3.org/2000/svg" version="1.1" viewBox="0 0 1261.38 399.85">
  <defs>
    <style>
      .cls-1 {
        fill: #002f56;
      }

      .cls-1, .cls-2, .cls-3, .cls-4, .cls-5, .cls-6 {
        stroke-width: 0px;
      }

      .cls-2 {
        fill: #75cec8;
      }

      .cls-3 {
        fill: #00a488;
      }

      .cls-4 {
        fill: #00a688;
      }

      .cls-5 {
        fill: #005257;
      }

      .cls-6 {
        fill: #00848d;
      }
    </style>
  </defs>
  <g>
    <g>
      <path class="cls-1" d="M1091.41,298.84c-2.9,1.94-6.14,2.55-9.48,2.57-9.08.06-18.16.05-27.24,0-2.87-.01-5.57-.71-7.89-2.58-3.14,2.08-6.66,2.6-10.28,2.6-20.88.02-41.75,0-62.63,0-5.35-4.37-10.7-8.74-16.07-13.13.22-6.87-.6-13.78.72-20.55,1.81-7.94,6.87-12.52,14.75-14.03,2.24-.43,4.56-.65,6.84-.66,10.75-.07,30.48-.03,30.48-.03h0c-.01,11.65.03,21.92.04,40.58h26.32v-34.31h15.35c0,2.28,0,6.81,0,9.08,0,0,.01,13.51.02,20.26-.05,3.68.98,5.12,4.8,5.03,8.16-.03,16.31.07,24.47-.03v-34.36h15.31c0,10.19.01,15.46.05,29.34-.04,3.84,1.02,5.14,4.94,5.05,9.09-.02,18.17.06,27.26-.03-2.31-3.57-3.68-7.41-3.79-11.65-.2-4.42-.19-13.28-.19-13.28,0-1.67,0-6.23,0-7.92h14.72v-19.03c8.17-.15,16.33-.1,24.5-.01,18.57.29,31.62,12.12,30.82,31.17-4.84,4.31-9.57,8.52-14.35,12.78,2.5,4.06,5.74,8.4,11.02,7.98,6.21-.11,12.4-.04,18.62,0v-65.7h15.47c0,10.81.01,32.37.01,57.65.31,10.92-5.91,15.92-16.44,15.78-7.9.05-15.81-.06-23.71.05-6.16.16-11.16-2.37-15.52-6.49-2.37,2.13-4.77,4.28-7.21,6.46-20.9,0-41.81,0-62.72,0-3.23.04-6.4-.56-9.01-2.6ZM995.2,260.9c-4.3-.23-8.75-.1-13.08.07-6.17.23-8.84,5.8-8.82,11.4-.04,5.85-.08,11.7,0,17.54,1.56,1.27,3.1,2.53,4.54,3.71h17.36v-32.72ZM1165.02,288.21c-3.79-6.64-7.52-13.18-11.24-19.69h-12.96c-.07,4.53-.03,9.05,0,13.58-.03,6.03,2.86,11.25,9.38,11.47,2.86.17,5.73.03,8.73.03,1.99-1.75,4.07-3.6,6.1-5.38ZM1166.61,260.79c3.32,5.73,6.63,11.45,9.98,17.22,1.09-.94,2.11-1.83,3.06-2.65.04-5.88.47-11.79-2.29-17.14-2.35-4.75-5.97-8.02-11.38-8.58-3.46-.27-7.1-.29-10.53-.09v11.24h11.16Z"/>
      <path class="cls-1" d="M1254.13,301.4h-15.34v-73.41h15.34v73.41Z"/>
      <path class="cls-1" d="M1056.41,232.8v9.88h-7.7v-5.68c-3.29-.86-5.51.77-5.57,4.02-.03,1.86,0,3.72,0,5.61.78.72,1.56,1.44,2.39,2.19h13.13v5.13h-26.03v-5.13h5.43c-1.26-1.13-2.34-2.09-3.27-2.92-.19-5.79-.66-11.62,6.41-12.88,3.71-.57,14.74-.16,15.24-.27v.05Z"/>
      <path class="cls-1" d="M996.78,226.07c2.98,2.98,6,6,8.95,8.95-2.97,2.97-6,6-8.97,8.97-2.95-2.86-5.99-5.81-9.06-8.78-2.94,2.95-5.96,5.98-9.03,9.05-3.03-3.1-5.96-6.1-8.97-9.18,2.98-3.05,5.93-6.07,8.89-9.1,3.04,3.05,6.05,6.07,9,9.02,3.12-3.03,6.18-5.99,9.19-8.91Z"/>
      <path class="cls-1" d="M1068.98,318.59c3.13-3.02,6.17-5.96,9.14-8.82,2.85,2.85,5.87,5.87,8.82,8.82-2.9,2.9-5.92,5.92-8.82,8.81-2.98-2.88-6.03-5.82-9.14-8.82Z"/>
      <path class="cls-1" d="M1105.16,318.63c-2.9,2.9-5.92,5.9-8.84,8.82-3-2.9-6.06-5.85-9.16-8.85,3.13-3.03,6.17-5.98,9.13-8.85,2.86,2.86,5.88,5.88,8.87,8.88Z"/>
    </g>
    <g>
      <path class="cls-1" d="M777.04,227.97h15.47v65.67h30.99c-4.1-3.89-6.71-8.54-7.61-14.09-.77-4.58-1.22-9.21-1.74-13.83,3.16-4.28,6.3-8.55,9.45-12.81,7.87.03,15.66-.1,23.5.17,5.29.22,10.41,1.32,15.03,4.09,9.94,5.43,10.08,17.77,5.11,26.79-2.08,3.84-4.91,6.99-8.37,9.66h32.15v-65.62h15.46c0,11.47.02,32.04.02,57.64.3,7.57-3.09,14-10.97,15.29-39.41,1.39-79,.08-118.47.52,0-29.68-.02-63.36-.02-73.47ZM829.1,260.75c.27,3.51.7,6.98,1.12,10.47.41,3.11.75,6.25,1.44,9.3,1.27,5.73,4.85,11.92,11.03,13.25,7.98-4.88,12.84-13.94,12.21-23.31-.2-3.04-1.36-5.67-3.84-7.58-2.14-1.64-4.61-2.17-7.24-2.17-4.91.04-9.8-.07-14.71.04Z"/>
      <path class="cls-1" d="M726.05,301.44c-2.7-2.72-5.43-5.47-8.19-8.26-2.99,4.62-7.67,7.28-13.04,7.92-19.89.88-39.87.08-59.79.34-5.36-4.38-10.71-8.75-16.15-13.2.09-5.68.02-11.4.31-17.1.21-4.15,1.52-8.04,4.23-11.33,4.31-5.35,11.28-6.64,17.79-6.75,10.77-.07,30.56-.03,30.56-.03h0c0,11.01.02,22.14.03,40.65,3.46,0,6.89,0,10.34,0,4.25-.1,9.24.97,11.21-3.84.79-1.81,1.34-3.75,1.73-5.69,1.18-5.81,2.11-11.66,3.36-17.45.81-3.76,2.61-7.07,5.7-9.52,4.29-3.43,9.92-3.79,15.19-3.93,11.51-.05,33.08-.02,33.08-.02-.08,10.4.17,16.31-.06,29.67-.14,4.68-1.5,9-4.84,12.47-7.89,8.1-21.1,5.68-31.45,6.07ZM746.95,261.11c-5.23,0-10.37-.1-15.5.03-6.06.13-7.4,4.64-8.21,9.83-.81,4.26-1.59,8.53-2.31,12.46,3.42,3.54,6.69,6.91,9.8,10.13,5.78.04,12.81,1.08,15.15-5.54.58-1.56.99-3.28,1.02-4.94.09-7.32.15-14.66.05-21.97ZM666.3,293.64v-32.96c-4.53.1-9.02.05-13.47.36-4.89.15-7.96,4.7-8.23,9.29-.13,6.5-.06,13.01-.06,19.67,1.41,1.15,2.97,2.43,4.45,3.64h17.31Z"/>
      <path class="cls-1" d="M919.29,227.95h15.35c0,12.46.03,42.56.03,73.42h-15.37v-73.42Z"/>
      <path class="cls-1" d="M649.75,225.93c3.04,3.07,6.04,6.1,8.99,9.07,3.12-3.03,6.18-5.99,9.21-8.94,2.97,2.97,5.98,5.99,8.95,8.96-2.99,2.99-6.02,6.02-8.99,8.99-2.98-2.9-6.02-5.85-9.1-8.85-2.95,2.96-5.98,5.99-9.04,9.05-3-3.07-5.94-6.08-8.94-9.15,2.98-3.05,5.93-6.07,8.92-9.14Z"/>
    </g>
    <g>
      <path class="cls-1" d="M471.3,252.9c7.82.03,15.6-.06,23.41.17,5.32.17,10.46,1.31,15.11,4.08,10,5.46,10.08,17.9,5.04,26.93-2.07,3.78-4.88,6.88-8.3,9.51h32.14v-65.62h15.47c0,2.33,0,6.93,0,9.24,0,0,0,31.83.03,47.75.1,2.98-.37,5.84-1.23,8.66h24.82v-65.66h15.41c.11,14.54-.05,30.83.05,57.7,0,2.2-.14,4.37-.78,6.49-1.54,5.06-5.13,7.79-10.16,8.76-76.5,1.45-153.19.05-229.76.52,0-29.71-.02-63.27-.02-73.47h15.45v65.66h31.56c-3.68-3.76-7.41-7.58-11.17-11.44.12-4.61-.35-9.27.74-13.86,1.82-7.71,6.81-12.13,14.44-13.62,2.37-.46,4.83-.67,7.24-.69,10.45-.07,29.73-.03,29.73-.03h0c-.01,10.18.02,15.79.05,29.09,0,3.52.14,7.06-1.24,10.52h31.83c-4.08-3.88-6.68-8.52-7.57-14.05-.78-4.58-1.21-9.21-1.74-13.83,3.16-4.28,6.3-8.54,9.45-12.81ZM490.38,293.77c7.97-4.85,12.84-13.93,12.22-23.28-.2-3.11-1.39-5.78-3.95-7.69-2.1-1.57-4.53-2.08-7.11-2.08-4.93.05-9.85-.09-14.77.05.65,5.87,1.22,11.66,2.08,17.49,1.03,6.49,4.53,13.93,11.53,15.51ZM403.93,284.98c2.95,2.95,5.79,5.79,8.62,8.63,2.93,0,5.91.06,8.88-.02,1.79-.05,2.92-1.16,3.36-2.86.23-.91.33-1.89.34-2.83,0-8.73.08-17.47-.03-26.2-3.98-.14-7.97-.07-11.95.05-4.8.2-8.01,2.98-8.79,7.73-.66,5.04-.38,10.52-.43,15.52Z"/>
      <path class="cls-1" d="M307.39,321.45c-.83-1.9-1.63-3.74-2.51-5.76,10.57,1.13,17.43-8.03,17.37-17.88.08-15.21.03-29.47.04-44.72h15.4c-.02,13.92.13,29.6,0,44.03.36,17.34-14.06,26.66-30.3,24.32Z"/>
      <path class="cls-1" d="M419.41,234.78c-3.04,2.95-6.07,5.89-9.03,8.77-2.98-2.88-6.01-5.81-9.07-8.76,3.13-3.02,6.19-5.97,9.39-9.06,2.7,2.8,5.65,5.86,8.54,8.85,3.18-3.09,6.17-6,9.21-8.94,2.92,3.02,5.9,6.1,8.77,9.08-2.79,2.88-5.76,5.95-8.66,8.94-3.11-3.01-6.16-5.97-9.16-8.87Z"/>
    </g>
    <path class="cls-1" d="M330.42,371.87l-7.6-11.37h-9.51v11.37h-6.37v-34.3h14.99c10.44,0,14.8,3.48,14.8,11.17,0,5.68-2.3,9.21-7.15,10.78l8.33,12.35h-7.5ZM313.32,355.02h8.97c5.63,0,7.84-1.67,7.84-5.93s-2.21-5.93-7.84-5.93h-8.97v11.86Z"/>
    <path class="cls-1" d="M370.79,343.26h-20.38v8.53h18.86v5.44h-18.86v8.97h20.78v5.68h-27.14v-34.3h26.75v5.68Z"/>
    <path class="cls-1" d="M402.43,364.33h-16.71l-3.09,7.55h-7.2l14.45-34.3h8.38l14.5,34.3h-7.25l-3.09-7.55ZM400.23,359.04l-6.17-15.04-6.17,15.04h12.35Z"/>
    <path class="cls-1" d="M425.35,366.14h18.13v5.73h-24.5v-34.3h6.37v28.57Z"/>
    <path class="cls-1" d="M488.69,343.26h-20.38v8.53h18.86v5.44h-18.86v8.97h20.78v5.68h-27.14v-34.3h26.75v5.68Z"/>
    <path class="cls-1" d="M519.85,345.86c-3.68-1.96-8.18-3.23-11.66-3.23-3.67,0-6.17,1.37-6.17,4.16,0,1.81.98,2.6,6.42,4.07,7.54,2.09,15.17,3.47,15.04,10.93.17,13.59-21.5,12.26-29.84,6.03l2.94-4.8c4.76,3.12,19.81,7.1,20.19-.88,0-2.35-1.32-3.04-6.22-4.26-7.93-1.99-15.55-3.34-15.43-10.63.26-13.1,19.65-11.44,27.54-6.47l-2.79,5.1Z"/>
    <path class="cls-1" d="M555.85,343.16h-10.98v28.71h-6.37v-28.71h-10.98v-5.59h28.32v5.59Z"/>
    <path class="cls-1" d="M582.6,364.33h-16.71l-3.09,7.55h-7.2l14.45-34.3h8.38l14.5,34.3h-7.25l-3.09-7.55ZM580.39,359.04l-6.17-15.04-6.17,15.04h12.35Z"/>
    <path class="cls-1" d="M621.1,343.16h-10.98v28.71h-6.37v-28.71h-10.98v-5.59h28.32v5.59Z"/>
    <path class="cls-1" d="M653.97,343.26h-20.38v8.53h18.86v5.44h-18.86v8.97h20.78v5.68h-27.15v-34.3h26.75v5.68Z"/>
    <path class="cls-1" d="M699.57,346.25c-7.47-6.84-20.72-2.47-20.68,8.48.11,10.78,12.22,14.79,20.19,9.11v-5.83h-8.28v-5.14h14.31v14.26c-3.92,3.33-9.16,5.24-14.65,5.24-9.85.2-18.52-8.13-18.28-17.64-.2-16.24,20.44-23.01,31.55-12.79l-4.16,4.31Z"/>
    <path class="cls-1" d="M740.72,343.26h-20.38v8.53h18.86v5.44h-18.86v8.97h20.78v5.68h-27.15v-34.3h26.75v5.68Z"/>
    <path class="cls-1" d="M779.08,337.58v34.3h-6.71l-18.13-24.65v24.65h-6.27v-34.3h6.71l18.18,24.65v-24.65h6.22Z"/>
    <path class="cls-1" d="M815.03,343.26h-20.38v8.53h18.86v5.44h-18.86v8.97h20.78v5.68h-27.15v-34.3h26.75v5.68Z"/>
    <path class="cls-1" d="M845.74,371.87l-7.59-11.37h-9.51v11.37h-6.37v-34.3h14.99c10.44,0,14.8,3.48,14.8,11.17,0,5.68-2.3,9.21-7.15,10.78l8.33,12.35h-7.5ZM828.64,355.02h8.97c5.64,0,7.84-1.67,7.84-5.93s-2.2-5.93-7.84-5.93h-8.97v11.86Z"/>
    <path class="cls-1" d="M884.1,364.33h-16.71l-3.09,7.55h-7.2l14.45-34.3h8.38l14.5,34.3h-7.25l-3.09-7.55ZM881.89,359.04l-6.17-15.04-6.17,15.04h12.35Z"/>
    <path class="cls-1" d="M907.02,366.14h18.13v5.73h-24.5v-34.3h6.37v28.57Z"/>
    <path class="cls-1" d="M967.62,364.33h-16.71l-3.09,7.55h-7.2l14.45-34.3h8.38l14.5,34.3h-7.25l-3.09-7.55ZM965.41,359.04l-6.17-15.04-6.17,15.04h12.35Z"/>
    <path class="cls-1" d="M1013.42,356.39c0,10.24-5.49,15.97-15.29,15.97s-15.34-5.78-15.34-15.97v-18.82h6.37v18.82c0,6.47,3.28,10.09,8.97,10.09s8.92-3.63,8.92-10.09v-18.82h6.37v18.82Z"/>
    <path class="cls-1" d="M1047.95,343.16h-10.98v28.71h-6.37v-28.71h-10.98v-5.59h28.32v5.59Z"/>
    <path class="cls-1" d="M1085.18,371.87h-6.37v-14.41h-18.37v14.41h-6.37v-34.3h6.37v14.16h18.37v-14.16h6.37v34.3Z"/>
    <path class="cls-1" d="M1111.39,372.36c-9.85.2-18.52-8.13-18.28-17.64-.25-9.51,8.43-17.84,18.28-17.64,9.8-.2,18.37,8.13,18.18,17.64.2,9.51-8.38,17.83-18.18,17.64ZM1111.39,366.39c6.47,0,11.51-5.24,11.51-11.66-.51-15.49-22.58-15.44-23.08,0,0,6.42,5.05,11.66,11.56,11.66Z"/>
    <path class="cls-1" d="M1160.96,371.87l-7.59-11.37h-9.51v11.37h-6.37v-34.3h14.99c10.44,0,14.8,3.48,14.8,11.17,0,5.68-2.3,9.21-7.15,10.78l8.33,12.35h-7.5ZM1143.86,355.02h8.97c5.64,0,7.84-1.67,7.84-5.93s-2.2-5.93-7.84-5.93h-8.97v11.86Z"/>
    <path class="cls-1" d="M1180.94,371.87h-6.37v-34.3h6.37v34.3Z"/>
    <path class="cls-1" d="M1215.48,343.16h-10.98v28.71h-6.37v-28.71h-10.98v-5.59h28.32v5.59Z"/>
    <path class="cls-1" d="M1254.13,337.58l-14.21,22.15v12.15h-6.42v-12.1l-14.21-22.2h7.64l9.8,15.48,9.85-15.48h7.55Z"/>
  </g>
  <g>
    <polygon class="cls-1" points="529.55 133.47 529.55 110.09 477.55 110.09 477.55 69.61 549.41 69.61 549.41 48.38 448.23 48.38 448.23 198.9 564.9 198.9 564.9 177.68 477.55 177.68 477.55 133.47 529.55 133.47"/>
    <path class="cls-1" d="M786.03,198.72h31.34V48.44h-71.58c-18.21,37.38-54.9,113.2-72.74,150.46h31.84l33.86-69.73,47.28,69.54ZM767.59,69.45h21.09v86.94l-36.05-53.51,14.96-33.43Z"/>
    <path class="cls-1" d="M592.07,51.76c-31.56,11.19-47.47,40.41-47.04,73.37-.42,31.42,16.23,58.38,46.07,68.87,9.88,3.64,21.32,5.49,33.99,5.49,9.68-.03,35.21-.36,47.99-.55v-90.84h-54.52v23.5h29.25v43.74c-5.54,1.98-4.99,2.06-14.45,1.92-34.74,1.05-59.91-19.05-59.02-55.79-.18-15.76,5.78-30.69,15.64-40.36,18.6-17.78,51.21-16.75,73.98-7.7l3.54-19.7c-18.23-9.33-54.59-10.31-75.42-1.95Z"/>
    <path class="cls-1" d="M369.94,144.7l42.94,54.2h35.35l-44.81-54.18,26.44-29.4v-33.6c0-18.38-14.96-33.34-33.34-33.34h-80.15v150.52h29.31v-54.95h23.66l.58.74ZM344.82,120.47l.53-50.99h35.48c13.42,0,23.13,10.34,23.13,17.31l-.53,18.81-13.2,14.87h-45.41Z"/>
  </g>
  <g>
    <polygon class="cls-5" points="22.6 252.54 143.48 373.42 143.48 325.24 70.35 252.54 22.6 252.54"/>
    <polygon class="cls-5" points="155.51 325.24 155.51 373.42 276.39 252.54 228.65 252.54 155.51 325.24"/>
    <polygon class="cls-2" points="143.48 125.29 143.48 122.74 143.48 91.81 143.48 91.73 143.48 74.99 94.9 26.71 94.9 26.81 47.16 26.42 64.34 43.61 78.22 57.48 88.36 67.66 102.23 81.5 112.41 91.68 112.47 91.73 41.22 91.73 41.3 91.81 7.25 125.29 143.48 125.29"/>
    <polygon class="cls-4" points="64.35 215.71 78.23 201.83 88.4 191.69 102.24 177.82 112.42 167.64 126.3 153.77 143.48 136.58 95.73 136.58 47.45 185.15 47.56 185.15 47.17 232.9 64.35 215.71"/>
    <polygon class="cls-2" points="257.7 91.81 257.77 91.73 189.53 91.73 186.52 91.74 186.58 91.68 196.76 81.5 210.63 67.66 220.77 57.48 234.65 43.61 251.83 26.42 204.09 26.81 204.09 26.71 155.51 74.99 155.51 91.81 155.51 122.74 155.51 125.29 291.75 125.29 257.7 91.81"/>
    <polygon class="cls-3" points="185.9 167.64 196.07 177.82 209.91 191.69 220.09 201.83 233.97 215.71 251.15 232.9 250.76 185.15 250.87 185.15 202.58 136.58 154.84 136.58 172.02 153.77 185.9 167.64"/>
    <polygon class="cls-6" points="165.97 167.78 132.86 167.78 113.45 187.59 185.55 187.59 165.97 167.78"/>
    <polygon class="cls-6" points="165.97 199.3 132.86 199.3 113.45 219.11 185.55 219.11 165.97 199.3"/>
    <polygon class="cls-6" points="165.97 230.59 132.86 230.59 113.45 250.41 185.55 250.41 165.97 230.59"/>
    <polygon class="cls-6" points="113.45 281.82 185.55 281.82 165.97 262.01 132.86 262.01 113.45 281.82"/>
  </g>
</svg>