<svg width="157" height="80" viewBox="0 0 157 80" fill="none" xmlns="http://www.w3.org/2000/svg">
<g id="Layer_1" clip-path="url(#clip0_3805_16483)">
<g id="Group">
<path id="Vector" d="M23.8636 44.4302L22.8878 41.9009H17.0461L16.0703 44.4302H23.8636Z" fill="white"/>
<path id="Vector_2" d="M71.0331 18.0847C68.1058 18.0847 66.3597 16.1332 66.3597 13.2059C66.3597 10.2786 68.1186 8.53248 71.0331 8.53248C73.9475 8.53248 75.7065 10.2914 75.7065 13.2059C75.7065 16.1203 73.9475 18.0847 71.0331 18.0847ZM71.0331 5.4126C66.3597 5.4126 62.8418 8.72506 62.8418 13.2059C62.8418 17.8793 66.3468 21.2046 71.0331 21.2046C75.7193 21.2046 79.2244 17.8921 79.2244 13.2059C79.2244 8.51964 75.9119 5.4126 71.0331 5.4126Z" fill="white"/>
<path id="Vector_3" d="M20.3583 18.0851H0.470703V21.205H20.5509L20.3583 18.0851Z" fill="white"/>
<path id="Vector_4" d="M87.8026 35.6877V47.5766H90.9225V32.1826H86.4417L82.744 41.5294L79.0335 32.1826H74.5527V47.5766H77.6726V35.3025L77.48 35.4951L81.5628 47.5766H83.707L87.9952 35.6877H87.8026Z" fill="white"/>
<path id="Vector_5" d="M8.662 47.5767V34.9046H13.528V32.1827H0.470703V34.9046H5.54212V47.5767H8.662Z" fill="white"/>
<path id="Vector_6" d="M15.6726 47.5766L19.9608 36.6378L24.2491 47.5766H27.5744L21.3346 32.1826H18.7925L12.5527 47.5766H15.6726Z" fill="white"/>
<path id="Vector_7" d="M50.7605 34.9045H58.1686V32.1826H47.6406V47.5766H58.1686V44.8547H50.7605V41.1443H57.1929V38.4224H50.7605V34.9045Z" fill="white"/>
<path id="Vector_8" d="M64.407 34.9045H71.4299V32.1826H61.2871V47.5766H71.4299V44.8547H64.407V41.1443H70.6468V38.4224H64.407V34.9045Z" fill="white"/>
<path id="Vector_9" d="M87.4173 5.79761V18.0845H33.609L33.0312 21.2044H90.9224V5.79761H87.4173Z" fill="white"/>
<path id="Vector_10" d="M35.9452 44.8539C32.8253 44.8539 30.8738 42.7098 30.8738 39.5899C30.8738 36.6626 32.8253 34.5185 35.9452 34.5185C38.8725 34.5185 41.0166 36.6626 41.0166 39.5899C41.0166 42.7098 38.8725 44.8539 35.9452 44.8539ZM35.9452 31.7966C31.0664 31.7966 27.7539 35.1091 27.7539 39.5899C27.7539 44.2633 31.0664 47.5886 35.9452 47.5886C40.824 47.5886 44.1365 44.2762 44.1365 39.5899C44.1365 35.1091 40.824 31.7966 35.9452 31.7966Z" fill="white"/>
<path id="Vector_11" d="M31.4632 21.2056H34.7757V18.0857H30.8726C29.1137 18.0857 28.1379 17.4951 27.7527 15.9416C27.7527 15.5564 27.7527 15.1584 27.5601 14.5806C27.5601 14.1955 25.416 12.4365 25.416 12.4365V15.3638C25.416 20.0372 26.777 21.2056 31.4632 21.2056Z" fill="white"/>
<path id="Vector_12" d="M54.6652 5.79761H51.1602V19.4455H54.6652V5.79761Z" fill="white"/>
<path id="Vector_13" d="M40.425 5.79761H36.9199V19.4455H40.425V5.79761Z" fill="white"/>
<path id="Vector_14" d="M36.1484 47.5762H44.9175V45.2395H38.4851L36.1484 47.5762Z" fill="white"/>
<path id="Vector_15" d="M20.5507 18.0847C17.816 18.0847 15.8773 16.1332 15.8773 13.2059C15.8773 10.2786 17.8288 8.53248 20.5507 8.53248C23.2725 8.53248 25.2241 10.2914 25.2241 13.2059C25.2241 16.1203 23.2725 18.0847 20.5507 18.0847ZM20.5507 5.4126C15.6718 5.4126 12.3594 8.72506 12.3594 13.2059C12.3594 17.6867 15.6718 21.2046 20.5507 21.2046C25.4295 21.2046 28.742 17.8921 28.742 13.2059C28.742 8.72506 25.4295 5.4126 20.5507 5.4126Z" fill="white"/>
<path id="Vector_16" d="M88.4054 -0.00512695H84.9004V3.11475H88.4054V-0.00512695Z" fill="white"/>
<path id="Vector_17" d="M93.6711 -0.00512695H90.166V3.11475H93.6711V-0.00512695Z" fill="white"/>
<path id="Vector_18" d="M70.1613 -0.00512695H66.6562V3.11475H70.1613V-0.00512695Z" fill="white"/>
<path id="Vector_19" d="M75.425 -0.00512695H71.9199V3.11475H75.425V-0.00512695Z" fill="white"/>
<path id="Vector_20" d="M52.0324 24.1709H48.5273V27.2908H52.0324V24.1709Z" fill="white"/>
<path id="Vector_21" d="M57.2961 24.1709H53.791V27.2908H57.2961V24.1709Z" fill="white"/>
<path id="Vector_22" d="M37.7941 24.1709H34.2891V27.2908H37.7941V24.1709Z" fill="white"/>
<path id="Vector_23" d="M43.0578 24.1709H39.5527V27.2908H43.0578V24.1709Z" fill="white"/>
</g>
<g id="Group_2">
<path id="Vector_24" d="M157.003 7.19712V1.56079C155.308 1.92028 153.613 2.33113 151.944 2.80618C149.8 3.40961 147.669 4.09008 145.576 4.86042C146.218 4.89894 148.747 5.24559 151.533 5.81051C153.395 6.18284 155.372 6.65788 157.003 7.20996" fill="#1AAC9F"/>
<path id="Vector_25" d="M153.51 -0.00512695H131.799C132.775 0.225975 135.073 1.07335 137.397 2.03628C139.4 2.87081 141.428 3.78238 142.635 4.48853C143.392 4.052 144.959 3.28166 146.833 2.4728C148.9 1.56123 151.365 0.611146 153.51 -0.00512695Z" fill="#1AAC9F"/>
<path id="Vector_26" d="M143.535 7.08162C143.535 7.08162 143.497 7.0431 143.42 6.96606C143.69 11.678 143.856 16.4669 143.972 21.1917H154.539C151.521 16.0304 147.798 11.2928 143.535 7.06878" fill="#1AAC9F"/>
<path id="Vector_27" d="M140.017 6.46574C139.554 6.56845 139.118 6.65832 138.797 6.72252C132.352 8.14765 126.035 10.3174 120.142 13.2576C118.563 14.0279 116.457 15.1963 114.942 16.0693L113.26 17.0964L111.719 14.6314C119.795 9.53426 129.065 6.29883 138.514 5.00209C138.823 4.96357 139.233 4.91222 139.683 4.86086C129.681 0.867926 121.207 -0.00512695 117.754 -0.00512695H101.281V21.2049H127.473C130.76 15.62 135.048 10.6256 140.017 6.46574Z" fill="#1AAC9F"/>
<path id="Vector_28" d="M130.709 21.2054H141.301C141.404 16.9813 141.558 12.7573 141.751 8.58461C141.751 8.58461 141.802 7.77576 141.84 6.97974C140.903 7.91698 139.915 8.94411 139.144 9.77864C135.934 13.2837 133.097 17.1097 130.709 21.2054Z" fill="#1AAC9F"/>
<path id="Vector_29" d="M145.23 6.46582C145.539 6.7226 145.834 6.96654 146.052 7.14629C150.289 10.8568 154.012 15.1835 157.004 19.9596V9.80396C153.203 8.40451 149.198 7.3132 145.23 6.46582Z" fill="#1AAC9F"/>
<path id="Vector_30" d="M139.723 45.5214C138.722 46.0478 137.515 46.7668 136.205 47.5757H148.89C146.836 46.3303 144.692 45.1363 142.445 43.9936C141.508 44.4943 140.596 45.0079 139.71 45.5214" fill="#1AAC9F"/>
<path id="Vector_31" d="M144.855 42.7623C145.433 43.109 145.998 43.4556 146.55 43.8151C148.104 44.701 150.171 46.0748 152.264 47.5769H157.001V37.845C152.649 39.2958 148.553 40.9649 144.855 42.7623Z" fill="#1AAC9F"/>
<path id="Vector_32" d="M142.622 41.4649C147.154 39.0255 152.02 36.8172 157.014 34.994V26.3662H101.293V29.0752C116.225 30.4747 131.503 35.3022 142.635 41.4649" fill="#1AAC9F"/>
<path id="Vector_33" d="M140.145 42.8392C131.055 38.4354 120.809 34.9817 110.949 33.4667C108.625 33.0045 104.992 32.5551 101.281 32.2341V47.5639H132.711C135.035 45.9205 137.526 44.3413 140.158 42.8263" fill="#1AAC9F"/>
</g>
<g id="Group_3">
<path id="Vector_34" d="M3.94742 60.2741L3.27979 59.645L2.625 60.2741L3.27979 60.9289L3.94742 60.2741Z" fill="white"/>
<path id="Vector_35" d="M23.4376 60.2226L23.964 60.7618L24.5674 60.1584L23.964 59.5549L23.4376 60.0813L22.8984 59.5549L22.2949 60.1584L22.8984 60.7618L23.4376 60.2226Z" fill="white"/>
<path id="Vector_36" d="M47.2931 60.2741L46.6383 59.645L45.9707 60.2741L46.6383 60.9289L47.2931 60.2741Z" fill="white"/>
<path id="Vector_37" d="M63.7801 60.2613C64.1139 60.2613 64.268 60.1072 64.345 59.9531C64.4477 60.1586 64.666 60.2613 64.9613 60.2613C65.7702 60.2613 65.86 59.7092 65.86 59.2598C65.86 58.9902 65.8087 58.6436 65.8087 58.6436L65.2823 58.6692C65.2823 58.6692 65.3336 58.9902 65.3336 59.247C65.3336 59.4524 65.308 59.6322 65.0383 59.6322C64.8329 59.6322 64.7302 59.6065 64.7302 59.4011V58.9132H64.1781V59.4139C64.1781 59.5551 64.0754 59.6193 63.87 59.6193C63.6389 59.6193 63.549 59.5551 63.549 59.3112C63.549 59.0416 63.7031 58.6436 63.7031 58.6436H63.151C63.151 58.6436 63.0098 59.0159 63.0098 59.3882C63.0098 60.0944 63.3564 60.2484 63.7801 60.2484" fill="white"/>
<path id="Vector_38" d="M69.2626 59.016L69.8019 59.5553L70.4053 58.9518L69.8019 58.3484L69.2626 58.8748L68.7362 58.3484L68.1328 58.9518L68.7362 59.5553L69.2626 59.016Z" fill="white"/>
<path id="Vector_39" d="M86.9775 58.6049L87.5039 59.1313L88.1202 58.5278L87.5039 57.9373L86.9775 58.4637L86.4382 57.9373L85.8477 58.5278L86.4382 59.1313L86.9775 58.6049Z" fill="white"/>
<path id="Vector_40" d="M129.282 58.6049L129.809 59.1313L130.425 58.5278L129.809 57.9373L129.282 58.4637L128.743 57.9373L128.152 58.5278L128.743 59.1313L129.282 58.6049Z" fill="white"/>
<path id="Vector_41" d="M142.905 60.1204C142.777 60.1332 142.43 60.1846 142.071 60.1846C141.788 60.1846 141.724 60.1461 141.724 59.9406C141.724 59.7224 141.891 59.6839 142.135 59.6839C142.417 59.6839 142.7 59.7866 142.7 59.7866V59.2217C142.7 59.2217 142.404 59.0933 142.135 59.0933C141.673 59.0933 141.275 59.3757 141.275 59.9535C141.275 60.1204 141.326 60.2359 141.39 60.2873H141.172V60.8907C142.019 60.8265 142.597 60.7495 142.905 60.6981V60.1332V60.1204Z" fill="white"/>
<g id="Group_4">
<path id="Vector_42" d="M6.90305 64.6261H7.66055C8.86742 64.6261 9.57357 63.8301 9.57357 62.3793C9.57357 61.9813 9.52221 61.4934 9.43234 61.0569H8.62348C8.71335 61.5319 8.76471 61.9941 8.76471 62.3279C8.76471 63.1625 8.48225 63.522 7.66055 63.522H6.90305C6.00432 63.522 5.95296 63.3936 5.87593 62.7773C5.86309 62.5334 5.83741 62.2638 5.7989 61.9941H4.93868C5.02855 62.6874 5.06707 63.278 5.06707 63.9585C5.06707 65.0498 4.60487 65.5377 3.20541 65.5377C1.80596 65.5377 1.30524 65.1397 1.30524 63.9713C1.30524 63.0983 1.66473 62.2638 1.66473 62.2638H0.830196C0.830196 62.2638 0.470703 62.9827 0.470703 64.0099C0.470703 65.8073 1.24104 66.6419 3.12838 66.6419C5.01572 66.6419 5.81173 65.833 5.91445 64.3052C6.09419 64.4977 6.40233 64.6261 6.90305 64.6261Z" fill="white"/>
<path id="Vector_43" d="M8.32931 65.7563L7.81575 65.2684L7.26367 65.8205L7.81575 66.3854L8.32931 65.8975L8.81719 66.3854L9.38211 65.8205L8.81719 65.2684L8.32931 65.7563Z" fill="white"/>
<path id="Vector_44" d="M33.8534 63.5604C33.1729 63.5604 32.929 63.432 32.929 62.9955C32.929 62.4691 33.3912 62.1352 33.879 62.1352C34.4311 62.1352 34.6879 62.4691 34.9575 63.0853L35.0346 63.2394C34.8933 63.4063 34.5467 63.5475 33.8534 63.5475M28.3839 63.1752C28.0758 62.9313 27.4082 62.1866 27.0102 61.7116C27.2926 61.6088 27.7548 61.5318 28.3454 61.5318C29.1671 61.5318 29.4496 61.6859 29.4496 62.071C29.4496 62.4562 29.1415 62.8029 28.3968 63.188H28.3839V63.1752ZM18.6777 63.5475C17.9972 63.5475 17.7532 63.4191 17.7532 62.9826C17.7532 62.4562 18.2154 62.1224 18.7033 62.1224C19.2554 62.1224 19.5122 62.4562 19.7818 63.0725L19.8588 63.2266C19.7176 63.3935 19.371 63.5347 18.6777 63.5347M36.7036 64.6003C38.1031 64.6003 38.668 64.0097 38.668 62.2893V58.0139H37.7821V62.6616C37.7821 63.3293 37.5638 63.4962 36.7036 63.4962C36.2029 63.4962 35.9846 63.2522 35.8177 62.8414L35.5995 62.3663C35.2913 61.6859 34.9062 61.0439 33.9818 61.0439C33.0574 61.0439 32.2357 61.8014 32.2357 63.0211C32.2357 63.0982 32.2357 63.188 32.2357 63.2651C32.0687 63.4577 31.7606 63.4833 31.3112 63.4833C31.3112 63.4833 29.4496 63.4833 29.1543 63.4577C29.899 62.9826 30.1557 62.5333 30.1557 61.8656C30.1557 60.9027 29.6165 60.4662 28.4481 60.4662C27.5879 60.4662 26.9717 60.5946 26.4838 60.8642L26.2655 61.9812C26.3939 62.2508 26.9845 62.9569 27.4595 63.4577C27.1257 63.4962 26.6892 63.4962 25.9959 63.4962H24.9816C24.1214 63.4962 23.8261 63.3036 23.8261 62.4049V61.5061H23.0301V62.4049C23.0301 63.2908 22.6321 63.4962 21.7719 63.4962C21.2711 63.4962 20.7833 63.2522 20.6035 62.8414L20.3852 62.3663C20.0771 61.6859 19.6919 61.0439 18.7675 61.0439C17.8431 61.0439 17.0214 61.8014 17.0214 63.0211C17.0214 63.0982 17.0214 63.188 17.0214 63.2651C16.8674 63.4577 16.5464 63.4833 16.1098 63.4833H15.1598C14.3894 63.4833 14.2097 63.3293 13.8759 62.1738L13.2339 59.9654H12.2838L13.0798 62.5974C13.1312 62.79 13.1826 62.9441 13.2339 63.111C13.1055 63.3421 12.8102 63.5219 11.9757 63.5219C10.833 63.5219 10.3965 63.2779 10.3965 63.2779V64.3307C10.3965 64.3307 10.833 64.6388 11.873 64.6388C12.8359 64.6388 13.3109 64.3179 13.5292 63.8043C13.8502 64.3692 14.2867 64.6003 15.1469 64.6003H16.097C16.7903 64.6003 17.0856 64.3564 17.214 63.9712C17.4323 64.3821 17.8688 64.626 18.5621 64.626C19.4223 64.626 19.8845 64.2922 20.0643 63.7658C20.3082 64.2408 20.963 64.5875 21.759 64.5875C22.6449 64.5875 23.2355 64.3179 23.3896 63.753C23.5436 64.3179 24.0572 64.5875 24.9559 64.5875H25.906C26.7791 64.5875 27.5494 64.5233 28.217 64.1124C28.8205 64.5361 29.7192 64.5875 30.7977 64.5875H31.2727C31.966 64.5875 32.2613 64.3436 32.3897 63.9584C32.608 64.3692 33.0445 64.6132 33.7378 64.6132C34.598 64.6132 35.0602 64.2794 35.24 63.753C35.4839 64.228 35.8691 64.5747 36.6523 64.5747L36.7036 64.6003Z" fill="white"/>
<path id="Vector_45" d="M41.132 58.0527H40.2461V64.6263H41.132V58.0527Z" fill="white"/>
<path id="Vector_46" d="M55.5504 65.8713L54.9598 65.2807L54.4334 65.8071L53.907 65.2807L53.3164 65.8713L53.907 66.4747L54.4334 65.9483L54.9598 66.4747L55.5504 65.8713Z" fill="white"/>
<path id="Vector_47" d="M64.9481 66.475L65.5515 65.8716L64.9481 65.281L64.4217 65.8074L63.8953 65.281L63.3047 65.8716L63.8953 66.475L64.4217 65.9486L64.9481 66.475Z" fill="white"/>
<path id="Vector_48" d="M74.6033 63.5604C73.9228 63.5604 73.6788 63.432 73.6788 62.9955C73.6788 62.4691 74.141 62.1352 74.6289 62.1352C75.181 62.1352 75.4378 62.4691 75.7074 63.0853L75.7844 63.2522C75.6432 63.4191 75.2966 63.5604 74.6033 63.5604ZM69.3007 63.1752C68.6074 62.9056 68.4148 62.6616 68.4148 62.1994C68.4148 61.6345 68.7487 61.3392 69.3007 61.3392C69.8528 61.3392 70.1866 61.6345 70.1866 62.1994C70.1866 62.6488 69.994 62.8927 69.3136 63.1752M59.2478 63.5604C58.5673 63.5604 58.3234 63.432 58.3234 62.9955C58.3234 62.4691 58.7856 62.1352 59.2735 62.1352C59.8255 62.1352 60.0823 62.4691 60.3519 63.0853L60.429 63.2522C60.2877 63.4191 59.9411 63.5604 59.2478 63.5604ZM67.1566 64.6132C68.2351 64.6132 68.8385 64.4077 69.2365 64.1638C69.6474 64.3821 70.1738 64.6132 71.3935 64.6132H72.074C72.7673 64.6132 73.0626 64.3692 73.191 63.9841C73.4092 64.3949 73.8457 64.6388 74.5391 64.6388C75.3993 64.6388 75.8615 64.305 76.0412 63.7786C76.2852 64.2537 76.6703 64.6003 77.4535 64.6003C78.2752 64.6003 78.8016 64.3949 79.0969 63.8813C79.2895 64.3564 79.7517 64.6003 80.5349 64.6003C81.9343 64.6003 82.4992 63.9969 82.4992 62.2893V58.0139H81.6134V62.6616C81.6134 63.3293 81.3951 63.4962 80.5349 63.4962C79.6747 63.4962 79.4179 63.2779 79.4179 62.3407V58.0139H78.532V62.6616C78.532 63.3293 78.3137 63.4962 77.4535 63.4962C76.9528 63.4962 76.7345 63.2522 76.5676 62.8414L76.3494 62.3663C76.0412 61.6859 75.6561 61.0439 74.7316 61.0439C73.8072 61.0439 72.9855 61.8014 72.9855 63.0211C72.9855 63.0982 72.9855 63.1752 72.9855 63.2651C72.8186 63.4577 72.5105 63.4833 72.0611 63.4833H71.3807C70.8928 63.4833 70.5846 63.4705 70.2637 63.432C70.713 63.1238 70.8928 62.7002 70.8928 62.1096C70.8928 60.9284 70.2637 60.2607 69.3007 60.2607C68.3378 60.2607 67.7087 60.9412 67.7087 62.1096C67.7087 62.7002 67.8756 63.1238 68.3378 63.432C68.004 63.4705 67.683 63.4962 67.1695 63.4962H66.3478C65.4876 63.4962 64.8584 63.3036 64.8584 62.4049V61.5061H64.0624V62.4049C64.0624 63.2908 63.7671 63.4962 62.9069 63.4962H62.098C61.5973 63.4962 61.3791 63.2522 61.2122 62.8414L60.9939 62.3663C60.6858 61.6859 60.3006 61.0439 59.3762 61.0439C58.4518 61.0439 57.6301 61.8014 57.6301 63.0211C57.6301 63.0982 57.6301 63.1752 57.6301 63.2651C57.476 63.4577 57.155 63.4833 56.7185 63.4833H56.0252C55.165 63.4833 54.8697 63.2908 54.8697 62.392V61.4933H54.0737V62.392C54.0737 63.2779 53.7655 63.4833 52.9053 63.4833H50.2733C49.3746 63.4833 49.3232 63.3549 49.2462 62.7387C49.2334 62.4947 49.2077 62.2251 49.1692 61.9555H48.3089C48.3988 62.6488 48.4373 63.2394 48.4373 63.9199C48.4373 65.0112 47.9751 65.4991 46.5757 65.4991C45.1762 65.4991 44.6755 65.1011 44.6755 63.9327C44.6755 63.0597 45.035 62.2251 45.035 62.2251H44.1876C44.1876 62.2251 43.8281 62.9441 43.8281 63.9841C43.8281 65.7815 44.5985 66.6161 46.4858 66.6161C48.3731 66.6161 49.1692 65.8072 49.2719 64.2794C49.4516 64.4719 49.7597 64.6003 50.2605 64.6003H52.8925C53.7784 64.6003 54.2791 64.3307 54.4332 63.7658C54.5872 64.3307 55.1008 64.6003 55.9995 64.6003H56.6928C57.3861 64.6003 57.6814 64.3564 57.8098 63.9712C58.0281 64.3821 58.4646 64.626 59.1579 64.626C60.0181 64.626 60.4803 64.2922 60.6601 63.7658C60.904 64.2408 61.2892 64.5875 62.0724 64.5875H62.8812C63.7671 64.5875 64.2422 64.3179 64.4091 63.753C64.576 64.3179 65.4105 64.5875 66.3092 64.5875" fill="white"/>
<path id="Vector_49" d="M87.6615 62.4819C87.5331 62.6231 87.225 62.7002 86.7628 62.7002C86.1722 62.7002 85.9026 62.5461 85.9026 62.1995C85.9026 61.8143 86.3519 61.5447 87.6615 61.1723V62.4691V62.4819ZM91.295 61.0568C91.3848 61.5318 91.4362 61.994 91.4362 62.3278C91.4362 63.1624 91.1537 63.5219 90.332 63.5219H89.4975C88.6886 63.5219 88.4961 63.2908 88.4961 62.3407V59.6702H87.6615V60.2608C85.7742 60.7872 85.1836 61.3778 85.1836 62.3407C85.1836 63.2266 85.5431 63.8172 86.5702 63.8172C87.225 63.8172 87.5716 63.5604 87.7129 63.1495C87.8541 64.0996 88.3805 64.626 89.5103 64.626H90.3449C91.5517 64.626 92.2579 63.83 92.2579 62.3792C92.2579 61.9812 92.2065 61.4933 92.1167 61.0568H91.3078H91.295Z" fill="white"/>
<path id="Vector_50" d="M90.9973 65.7564L90.4966 65.2686L89.9316 65.8206L90.4966 66.3855L90.9973 65.8977L91.498 66.3855L92.0629 65.8206L91.498 65.2686L90.9973 65.7564Z" fill="white"/>
<path id="Vector_51" d="M96.8009 62.8153C96.8009 61.7239 96.1204 60.8381 94.5412 60.0164L94.1303 61.0178C95.5041 61.7368 96.069 62.2247 96.069 62.8666C96.069 63.3673 95.671 63.5471 94.7081 63.5471C93.7452 63.5471 93.1931 63.3417 93.1289 63.3031V64.3559C93.1289 64.3559 93.5654 64.6641 94.6054 64.6641C96.1076 64.6641 96.8137 64.0863 96.8137 62.8153" fill="white"/>
<path id="Vector_52" d="M109.091 63.1877C108.783 62.9437 108.115 62.199 107.717 61.724C108 61.6213 108.462 61.5443 109.053 61.5443C109.874 61.5443 110.157 61.6983 110.157 62.0835C110.157 62.4687 109.849 62.8153 109.104 63.2005H109.091V63.1877ZM100.438 63.56H99.3976C98.7429 63.56 98.5246 63.4188 98.5246 63.0207C98.5246 62.5585 98.8969 62.2247 99.449 62.2247C100.219 62.2247 100.425 62.9437 100.425 63.3674V63.56H100.438ZM118.874 63.958C119.08 64.4202 119.593 64.6128 120.377 64.6128C121.776 64.6128 122.341 64.0093 122.341 62.3018V58.0264H121.455V62.6741C121.455 63.3417 121.237 63.5086 120.377 63.5086C119.516 63.5086 119.26 63.2904 119.26 62.7383V61.8139H118.464V62.7383C118.464 63.316 118.271 63.5086 117.745 63.5086C117.193 63.5086 117.013 63.316 117.013 62.7126V61.801H116.217V62.7126C116.217 63.316 115.986 63.5086 115.318 63.5086C114.689 63.5086 114.458 63.3032 114.458 62.7126V61.801H113.662V62.7254C113.662 63.3546 113.431 63.4958 112.493 63.4958H111.261C110.593 63.4958 110.17 63.4958 109.887 63.4701C110.632 62.9951 110.889 62.5457 110.889 61.8781C110.889 60.9151 110.349 60.4786 109.181 60.4786C108.321 60.4786 107.704 60.607 107.217 60.8766L106.998 61.9936C107.127 62.2632 107.717 62.9694 108.192 63.4701C107.859 63.5086 107.422 63.5086 106.729 63.5086H101.118V63.4701C101.118 62.2376 100.643 61.1719 99.5004 61.1719C98.4604 61.1719 97.8184 62.0321 97.8184 63.0978C97.8184 64.035 98.2678 64.5743 99.2821 64.5743H100.386C100.194 65.3831 99.5646 65.7169 98.6787 65.7169C98.0752 65.7169 97.6002 65.5115 97.5488 65.473V66.4744C97.5488 66.4744 97.9982 66.7826 98.7557 66.7826C100.001 66.7826 100.797 65.948 101.041 64.6256H106.51H106.639C107.512 64.6256 108.282 64.5614 108.95 64.1506C109.553 64.5743 110.17 64.6256 111.248 64.6256H112.455C113.277 64.6256 113.752 64.4202 113.957 63.958C114.124 64.4202 114.522 64.6256 115.228 64.6256C115.934 64.6256 116.332 64.3945 116.525 63.9837C116.692 64.4202 117.064 64.6256 117.693 64.6256C118.271 64.6256 118.669 64.3817 118.849 63.9708" fill="white"/>
<path id="Vector_53" d="M124.804 58.0527H123.918V64.6263H124.804V58.0527Z" fill="white"/>
<path id="Vector_54" d="M146.076 66.475L146.679 65.8716L146.076 65.281L145.549 65.8074L145.023 65.281L144.445 65.8716L145.023 66.475L145.549 65.9486L146.076 66.475Z" fill="white"/>
<path id="Vector_55" d="M150.43 65.7553C149.583 65.7553 149.185 65.2674 149.134 64.4971H150.032C151.098 64.4971 151.368 64.7282 151.368 65.1519C151.368 65.4985 151.021 65.7553 150.43 65.7553ZM149.121 63.4956C149.121 62.2888 149.48 61.8009 150.097 61.8009C150.662 61.8009 150.867 62.2503 150.867 62.828C150.867 63.5598 150.251 63.5727 149.391 63.5727H149.108V63.4956H149.121ZM129.978 62.4942C129.85 62.6354 129.541 62.7125 129.079 62.7125C128.489 62.7125 128.219 62.5584 128.219 62.2117C128.219 61.8266 128.668 61.557 129.978 61.1846V62.4814V62.4942ZM154.552 62.3145V58.0391H153.666V62.6868C153.666 63.3544 153.448 63.5213 152.587 63.5213H151.393C151.522 63.3544 151.599 63.0976 151.599 62.6996C151.599 61.6597 151.137 60.7353 150.161 60.7353C149.121 60.7353 148.428 61.711 148.428 63.4828V63.5085H147.144C146.283 63.5085 145.988 63.3159 145.988 62.4172V61.5184H145.192V62.4172C145.192 63.3031 144.704 63.5085 143.831 63.5085C142.958 63.5085 142.496 63.3159 142.496 62.4172V61.5184H141.7V62.4172C141.7 63.3031 141.392 63.5085 140.532 63.5085H131.814C131.005 63.5085 130.812 63.2774 130.812 62.3273V59.6568H129.978V60.2474C128.091 60.7738 127.5 61.3644 127.5 62.3273C127.5 63.2132 127.859 63.8038 128.887 63.8038C129.541 63.8038 129.888 63.547 130.029 63.1362C130.171 64.0862 130.697 64.6126 131.814 64.6126H140.532C141.417 64.6126 141.918 64.343 142.072 63.7781C142.226 64.343 142.933 64.6126 143.831 64.6126C144.73 64.6126 145.398 64.343 145.564 63.7781C145.719 64.343 146.232 64.6126 147.131 64.6126H148.428C148.505 65.9993 149.147 66.8081 150.405 66.8081C151.458 66.8081 152.087 66.1405 152.087 65.2161C152.087 64.9721 152.023 64.7667 151.894 64.6126H152.587C153.987 64.6126 154.552 64.0092 154.552 62.3016" fill="white"/>
<path id="Vector_56" d="M157.005 58.0527H156.119V64.6263H157.005V58.0527Z" fill="white"/>
<path id="Vector_57" d="M3.23109 74.1782L2.70469 74.114C1.8188 73.9985 1.53634 73.793 1.53634 73.1254C1.53634 72.4193 2.01139 72.0855 2.89728 72.0855C3.57775 72.0855 4.23254 72.3294 4.81029 72.7274V71.6746C4.32241 71.3408 3.64194 71.1739 2.85876 71.1739C1.56202 71.1739 0.470703 71.8287 0.470703 73.1383C0.470703 74.2424 1.12549 74.8715 2.20397 75.0128L2.75605 75.0898C3.70614 75.2053 4.05279 75.4236 4.05279 76.1298C4.05279 76.7974 3.53923 77.2082 2.66618 77.2082C1.87016 77.2082 1.16401 76.9643 0.522059 76.5534V77.6062C1.17685 77.9657 1.8188 78.1198 2.5763 78.1198C3.98859 78.1198 5.11843 77.4522 5.11843 76.0784C5.11843 74.8844 4.37376 74.3323 3.21825 74.1911" fill="white"/>
<path id="Vector_58" d="M8.90779 76.2841C8.86928 77.1186 8.253 77.3497 7.70093 77.3497C7.14885 77.3497 6.89207 77.1443 6.89207 76.7206C6.89207 76.1685 7.14885 76.0016 7.97055 76.0016H8.90779V76.2841ZM7.91919 73.0872C7.04614 73.0872 6.58393 73.2797 6.16024 73.6007V74.5508C6.67381 74.1271 7.11033 73.9859 7.7266 73.9859C8.72805 73.9859 8.90779 74.4096 8.90779 75.1799V75.2441H7.91919C6.55825 75.2441 5.89062 75.6935 5.89062 76.7463C5.89062 77.6193 6.42986 78.1457 7.4955 78.1457C8.12461 78.1457 8.59966 77.9275 8.90779 77.4909V78.0173H9.92208V75.0258C9.92208 73.6649 9.39568 73.0872 7.91919 73.0872Z" fill="white"/>
<path id="Vector_59" d="M14.3493 75.9887C14.3236 76.7847 13.8357 77.2213 13.2066 77.2213C12.6288 77.2213 12.1666 76.926 12.1666 76.0529V73.2155H11.1523V76.1685C11.1523 77.4138 11.7558 78.1328 12.9113 78.1328C13.5789 78.1328 14.0283 77.8632 14.3364 77.4267V78.0044H15.3507V73.2026H14.3364V75.9759L14.3493 75.9887Z" fill="white"/>
<path id="Vector_60" d="M19.8836 76.0269C19.858 76.7074 19.3444 77.298 18.6639 77.298C17.9835 77.298 17.5341 76.8229 17.5341 75.9756V75.2566C17.5341 74.3963 17.9835 73.9213 18.6896 73.9213C19.2674 73.9213 19.8066 74.3964 19.8965 75.0768V76.0269H19.8836ZM19.8836 73.8058C19.5755 73.3821 19.1133 73.0868 18.4457 73.0868C17.1489 73.0868 16.4941 73.9855 16.4941 75.3079V75.937C16.4941 77.3493 17.1746 78.1582 18.4457 78.1582C19.1133 78.1582 19.5627 77.8244 19.8836 77.3622V78.017H20.8979V71.2893H19.8836V73.8058Z" fill="white"/>
<path id="Vector_61" d="M23.2727 71.2378H22.207V72.3034H23.2727V71.2378Z" fill="white"/>
<path id="Vector_62" d="M23.2467 73.2153H22.2324V78.0171H23.2467V73.2153Z" fill="white"/>
<path id="Vector_63" d="M27.4331 75.552L28.4988 72.5092L29.5002 75.552H27.446H27.4331ZM27.9852 71.2766L25.4688 78.0043H26.5729L27.1121 76.4507H29.7955L30.3091 78.0043H31.5288L29.1279 71.2766H27.9852Z" fill="white"/>
<path id="Vector_64" d="M35.3942 75.9886C35.3685 76.7847 34.8806 77.2212 34.2515 77.2212C33.6738 77.2212 33.2115 76.9259 33.2115 76.0528V73.2154H32.1973V76.1684C32.1973 77.4138 32.8007 78.1328 33.9562 78.1328C34.6238 78.1328 35.0732 77.8631 35.3813 77.4266V78.0044H36.3956V73.2026H35.3813V75.9758L35.3942 75.9886Z" fill="white"/>
<path id="Vector_65" d="M39.1161 76.3735V74.0368H40.323V73.2151H39.1161V71.7771H38.1018V73.2151H37.293V74.0368H38.1018V76.489C38.1018 77.529 38.5897 78.1581 39.6682 78.1581C39.9506 78.1581 40.2459 78.1196 40.4257 78.0682V77.208C40.2716 77.2465 40.0148 77.2722 39.8351 77.2722C39.2959 77.2722 39.1161 77.0283 39.1161 76.3735Z" fill="white"/>
<path id="Vector_66" d="M43.8661 73.087C43.1856 73.087 42.6849 73.3695 42.3639 73.8317V71.2896H41.3496V78.0172H42.3639V75.244C42.3896 74.448 42.9031 74.0114 43.5322 74.0114C44.11 74.0114 44.5722 74.3709 44.5722 75.244V78.0044H45.5865V75.0514C45.5865 73.806 45.0216 73.087 43.8532 73.087" fill="white"/>
<path id="Vector_67" d="M50.0438 75.9374C50.0438 76.8233 49.5688 77.2984 48.8626 77.2984C48.1565 77.2984 47.6814 76.8233 47.6814 75.9374V75.2955C47.6814 74.4096 48.1436 73.9217 48.8626 73.9217C49.5816 73.9217 50.0438 74.4096 50.0438 75.2955V75.9374ZM48.8626 73.0872C47.6301 73.0872 46.6543 73.8447 46.6543 75.3211V75.9117C46.6543 77.3882 47.6301 78.1457 48.8626 78.1457C50.0952 78.1457 51.0709 77.3882 51.0709 75.9117V75.3211C51.0709 73.8447 50.0952 73.0872 48.8626 73.0872Z" fill="white"/>
<path id="Vector_68" d="M53.2155 73.9478V73.2031H52.2012V78.0049H53.2155V75.5141C53.2411 74.6667 53.7932 74.0505 54.4865 74.0505C54.5635 74.0505 54.6406 74.0505 54.7048 74.0633V73.0747C54.0243 73.0747 53.5364 73.4342 53.2155 73.9349" fill="white"/>
<path id="Vector_69" d="M56.5768 73.2153H55.5625V78.0171H56.5768V73.2153Z" fill="white"/>
<path id="Vector_70" d="M56.6008 71.2378H55.5352V72.3034H56.6008V71.2378Z" fill="white"/>
<path id="Vector_71" d="M59.2743 76.3733V74.0366H60.4812V73.2149H59.2743V71.777H58.26V73.2149H57.4512V74.0366H58.26V76.4889C58.26 77.5289 58.7479 78.158 59.8264 78.158C60.1088 78.158 60.4041 78.1195 60.5839 78.0681V77.2079C60.4298 77.2464 60.173 77.2721 59.9933 77.2721C59.4541 77.2721 59.2743 77.0281 59.2743 76.3733Z" fill="white"/>
<path id="Vector_72" d="M63.3931 76.9769L62.0707 73.2151H60.9922L62.8924 78.2223L62.2504 79.9941H63.3161L63.958 78.0169H63.9708L65.7683 73.2151H64.7155L63.3931 76.9769Z" fill="white"/>
<path id="Vector_73" d="M71.495 75.9374C71.495 76.8233 71.0199 77.2984 70.3138 77.2984C69.6076 77.2984 69.1326 76.8233 69.1326 75.9374V75.2955C69.1326 74.4096 69.5948 73.9217 70.3138 73.9217C71.0328 73.9217 71.495 74.4096 71.495 75.2955V75.9374ZM70.3138 73.0872C69.0812 73.0872 68.1055 73.8447 68.1055 75.3211V75.9117C68.1055 77.3882 69.0812 78.1457 70.3138 78.1457C71.5463 78.1457 72.5221 77.3882 72.5221 75.9117V75.3211C72.5221 73.8447 71.5463 73.0872 70.3138 73.0872Z" fill="white"/>
<path id="Vector_74" d="M80.0464 75.552L81.112 72.5092L82.1135 75.552H80.0592H80.0464ZM80.5985 71.2766L78.082 78.0043H79.1862L79.7254 76.4507H82.4088L82.9223 78.0043H84.142L81.7411 71.2766H80.5985Z" fill="white"/>
<path id="Vector_75" d="M84.6699 75.3215V75.9121C84.6699 77.2987 85.5045 78.1461 86.8782 78.1461C87.4945 78.1461 87.9952 77.9921 88.3547 77.7481V76.8622C87.8412 77.1832 87.4046 77.2859 86.9553 77.2859C86.1721 77.2859 85.7099 76.8109 85.7099 75.9506V75.283C85.7099 74.3843 86.1849 73.9349 86.9809 73.9349C87.4303 73.9349 87.9054 74.0376 88.3804 74.3586V73.3957C87.9567 73.1646 87.456 73.0747 86.9553 73.0747C85.4146 73.0747 84.6828 74.012 84.6828 75.3087" fill="white"/>
<path id="Vector_76" d="M89.2285 75.3215V75.9121C89.2285 77.2987 90.0631 78.1461 91.4368 78.1461C92.0531 78.1461 92.5538 77.9921 92.9133 77.7481V76.8622C92.3998 77.1832 91.9632 77.2859 91.5139 77.2859C90.7307 77.2859 90.2685 76.8109 90.2685 75.9506V75.283C90.2685 74.3843 90.7435 73.9349 91.5395 73.9349C91.9889 73.9349 92.4639 74.0376 92.939 74.3586V73.3957C92.5153 73.1646 92.0274 73.0747 91.5139 73.0747C89.9732 73.0747 89.2414 74.012 89.2414 75.3087" fill="white"/>
<path id="Vector_77" d="M95.0045 73.9478V73.2031H93.9902V78.0049H95.0045V75.5141C95.0302 74.6667 95.5823 74.0505 96.2756 74.0505C96.3526 74.0505 96.4297 74.0505 96.4938 74.0633V73.0747C95.8134 73.0747 95.3255 73.4342 95.0045 73.9349" fill="white"/>
<path id="Vector_78" d="M100.332 75.2439H98.1619C98.1619 74.3965 98.5599 73.9215 99.2532 73.9215C99.9465 73.9215 100.345 74.3451 100.345 75.2182V75.2439H100.332ZM99.2404 73.0869C98.0078 73.0869 97.1348 73.9343 97.1348 75.3209V75.9115C97.1348 77.3623 98.0335 78.1455 99.4073 78.1455C100.178 78.1455 100.678 78.0299 101.243 77.7218V76.8744C100.614 77.2339 100.152 77.2853 99.5357 77.2853C98.7268 77.2853 98.1747 76.8616 98.149 76.0142H101.346V75.2567C101.346 73.7931 100.46 73.0869 99.2275 73.0869" fill="white"/>
<path id="Vector_79" d="M105.647 76.0269C105.622 76.7074 105.108 77.298 104.428 77.298C103.747 77.298 103.298 76.8229 103.298 75.9756V75.2566C103.298 74.3963 103.747 73.9213 104.453 73.9213C105.031 73.9213 105.57 74.3964 105.66 75.0768V76.0269H105.647ZM105.647 73.8058C105.339 73.3821 104.877 73.0868 104.209 73.0868C102.913 73.0868 102.258 73.9855 102.258 75.3079V75.937C102.258 77.3493 102.938 78.1582 104.209 78.1582C104.877 78.1582 105.326 77.8244 105.647 77.3622V78.017H106.662V71.2893H105.647V73.8058Z" fill="white"/>
<path id="Vector_80" d="M109.012 73.2153H107.998V78.0171H109.012V73.2153Z" fill="white"/>
<path id="Vector_81" d="M109.038 71.2378H107.973V72.3034H109.038V71.2378Z" fill="white"/>
<path id="Vector_82" d="M111.722 76.3733V74.0366H112.928V73.2149H111.722V71.777H110.707V73.2149H109.898V74.0366H110.707V76.4889C110.707 77.5289 111.195 78.158 112.274 78.158C112.556 78.158 112.851 78.1195 113.031 78.0681V77.2079C112.877 77.2464 112.62 77.2721 112.441 77.2721C111.901 77.2721 111.722 77.0281 111.722 76.3733Z" fill="white"/>
<path id="Vector_83" d="M116.935 75.2441H114.765C114.765 74.3967 115.163 73.9217 115.857 73.9217C116.55 73.9217 116.948 74.3454 116.948 75.2184V75.2441H116.935ZM115.844 73.0872C114.611 73.0872 113.738 73.9345 113.738 75.3211V75.9117C113.738 77.3626 114.637 78.1457 116.011 78.1457C116.781 78.1457 117.282 78.0302 117.847 77.722V76.8747C117.218 77.2342 116.755 77.2855 116.139 77.2855C115.33 77.2855 114.778 76.8618 114.753 76.0145H117.949V75.257C117.949 73.7933 117.064 73.0872 115.831 73.0872" fill="white"/>
<path id="Vector_84" d="M122.235 76.0272C122.21 76.7076 121.696 77.2982 121.016 77.2982C120.335 77.2982 119.886 76.8232 119.886 75.9758V75.2568C119.886 74.3966 120.335 73.9216 121.041 73.9216C121.619 73.9216 122.158 74.3966 122.248 75.0771V76.0272H122.235ZM122.235 73.806C121.927 73.3823 121.465 73.087 120.797 73.087C119.5 73.087 118.846 73.9857 118.846 75.3082V75.9373C118.846 77.3496 119.526 78.1584 120.797 78.1584C121.465 78.1584 121.914 77.8246 122.235 77.3624V78.0172H123.249V71.2896H122.235V73.806Z" fill="white"/>
<path id="Vector_85" d="M128.49 76.7459L126.808 71.2893H125.627L127.861 78.017H128.991L131.379 71.2893H130.262L128.49 76.7459Z" fill="white"/>
<path id="Vector_86" d="M134.433 76.2838C134.395 77.1184 133.778 77.3495 133.226 77.3495C132.674 77.3495 132.417 77.144 132.417 76.7204C132.417 76.1683 132.674 76.0014 133.496 76.0014H134.433V76.2838ZM133.445 73.0869C132.572 73.0869 132.109 73.2795 131.686 73.6005V74.5506C132.199 74.1269 132.636 73.9856 133.252 73.9856C134.253 73.9856 134.433 74.4093 134.433 75.1797V75.2439H133.445C132.084 75.2439 131.416 75.6932 131.416 76.746C131.416 77.6191 131.955 78.1455 133.021 78.1455C133.65 78.1455 134.125 77.9272 134.433 77.4907V78.0171H135.447V75.0256C135.447 73.6647 134.921 73.0869 133.445 73.0869Z" fill="white"/>
<path id="Vector_87" d="M137.721 76.5404V71.2892H136.707V76.7201C136.707 77.6831 137.041 78.1453 137.991 78.1453C138.222 78.1453 138.466 78.0939 138.62 78.0426V77.1952C138.517 77.2337 138.376 77.2722 138.171 77.2722C137.811 77.2722 137.721 77.0796 137.721 76.5276" fill="white"/>
<path id="Vector_88" d="M142.572 75.9887C142.546 76.7847 142.058 77.2213 141.429 77.2213C140.851 77.2213 140.389 76.926 140.389 76.0529V73.2155H139.375V76.1685C139.375 77.4138 139.978 78.1328 141.134 78.1328C141.802 78.1328 142.251 77.8632 142.559 77.4267V78.0044H143.573V73.2026H142.559V75.9759L142.572 75.9887Z" fill="white"/>
<path id="Vector_89" d="M147.9 75.2439H145.73C145.73 74.3965 146.128 73.9215 146.822 73.9215C147.515 73.9215 147.913 74.3451 147.913 75.2182V75.2439H147.9ZM146.809 73.0869C145.576 73.0869 144.703 73.9343 144.703 75.3209V75.9115C144.703 77.3623 145.602 78.1455 146.976 78.1455C147.746 78.1455 148.247 78.0299 148.812 77.7218V76.8744C148.183 77.2339 147.72 77.2853 147.104 77.2853C146.295 77.2853 145.743 76.8616 145.717 76.0142H148.914V75.2567C148.914 73.7931 148.028 73.0869 146.796 73.0869" fill="white"/>
<path id="Vector_90" d="M151.059 73.9478V73.2031H150.045V78.0049H151.059V75.5141C151.085 74.6667 151.637 74.0505 152.33 74.0505C152.407 74.0505 152.484 74.0505 152.549 74.0633V73.0747C151.868 73.0747 151.38 73.4342 151.059 73.9349" fill="white"/>
<path id="Vector_91" d="M155.541 75.1797L154.976 75.1283C154.501 75.0898 154.077 75.0128 154.077 74.5634C154.077 74.1397 154.437 73.9343 155.092 73.9343C155.592 73.9343 156.247 74.1012 156.774 74.3965V73.4464C156.363 73.2281 155.721 73.0869 155.015 73.0869C154.052 73.0869 153.102 73.562 153.102 74.5634C153.102 75.5648 153.821 75.9243 154.578 75.9757L155.117 76.0271C155.657 76.0527 156.003 76.2196 156.003 76.669C156.003 77.1184 155.567 77.311 154.925 77.311C154.283 77.311 153.718 77.1184 153.166 76.8616V77.786C153.602 78.0171 154.347 78.1583 154.886 78.1583C155.862 78.1583 156.979 77.7218 156.979 76.6048C156.979 75.629 156.363 75.2824 155.515 75.2054" fill="white"/>
<path id="Vector_92" d="M73.9885 72.6637V73.0745H73.1797V73.8963H73.9885V78.0176H75.0028V73.8963H76.2097V73.0745H75.0028V72.7793C75.0028 72.1245 75.1826 71.8805 75.7218 71.8805C75.9016 71.8805 76.1583 71.8934 76.3124 71.9447V71.0845C76.1327 71.046 75.8374 70.9946 75.5549 70.9946C74.4764 70.9946 73.9885 71.6237 73.9885 72.6637Z" fill="white"/>
</g>
</g>
</g>
<defs>
<clipPath id="clip0_3805_16483">
<rect width="156.533" height="79.9999" fill="white" transform="translate(0.466797 -0.00488281)"/>
</clipPath>
</defs>
</svg>
